<?xml version="1.0"?>
<svg xmlns="http://www.w3.org/2000/svg" xmlns:xlink="http://www.w3.org/1999/xlink" xmlns:svgjs="http://svgjs.com/svgjs" version="1.1" width="512" height="512" x="0" y="0" viewBox="0 0 512 512" style="enable-background:new 0 0 512 512" xml:space="preserve" class=""><g><g xmlns="http://www.w3.org/2000/svg"><path d="m264.568 56.385-173.309 105.263h-36.259c-30.327 0-55 24.673-55 55v78.719c0 30.327 24.673 55 55 55h29.262c.044.026.085.056.13.082l180.549 105.405c16.535 9.653 37.604-2.237 37.604-21.59v-356.512c0-19.459-21.344-31.471-37.977-21.367zm-234.568 238.981v-78.719c0-13.785 11.215-25 25-25h21.955v128.719h-21.955c-13.785 0-25-11.214-25-25zm242.545 130.188-165.591-96.672v-141.667l165.591-100.576z" fill="#ffffff" data-original="#000000" style="" class=""/><path d="m349.526 317.936c-8.284 0-15 6.716-15 15s6.716 15 15 15c50.69 0 91.929-41.239 91.929-91.929s-41.239-91.929-91.929-91.929c-8.284 0-15 6.716-15 15s6.716 15 15 15c34.148 0 61.929 27.781 61.929 61.929s-27.781 61.929-61.929 61.929z" fill="#ffffff" data-original="#000000" style="" class=""/><path d="m349.526 93.533c-8.284 0-15 6.716-15 15s6.716 15 15 15c73.046 0 132.474 59.427 132.474 132.474s-59.428 132.475-132.474 132.475c-8.284 0-15 6.716-15 15s6.716 15 15 15c89.588 0 162.474-72.886 162.474-162.475s-72.886-162.474-162.474-162.474z" fill="#ffffff" data-original="#000000" style="" class=""/></g></g></svg>
